# xmcd
#
# Track frame offsets:
#	150
#	27177
#	48230
#	81536
#	108871
#	136687
#	165096
#	190485
#	219318
#	246959
#	272103
#	295780
#	321051
#
# Disc length: 4567 seconds
#
# Revision: 1
# Processed by: cddbd v1.4PL0 Copyright (c) Steve Scherf et al.
# Submitted via: EasyCDDAExtractor 5.0.6
#
DISCID=af11d50d
DTITLE=Larome Powers - Somebody's Chasin My Cat
DYEAR=2002
DGENRE=Blues
TTITLE0=Stop Mistreating Me
TTITLE1=Freaky Tonight
TTITLE2=Give Love
TTITLE3=I Feel Love
TTITLE4=No Need To Lie
TTITLE5=Rock and Roll Blues
TTITLE6=Save Your Love
TTITLE7=Come Back To Me
TTITLE8=Somebody's Chasin My Cat
TTITLE9=My Woman's Right On Time
TTITLE10=Let Love Take Your Mind
TTITLE11=Feel Like A King
TTITLE12=Was It Worth It
EXTD=
EXTT0=
EXTT1=
EXTT2=
EXTT3=
EXTT4=
EXTT5=
EXTT6=
EXTT7=
EXTT8=
EXTT9=
EXTT10=
EXTT11=
EXTT12=
PLAYORDER=
